<svg width="150" height="150" viewBox="0 0 150 150" fill="none" xmlns="http://www.w3.org/2000/svg">
<path d="M73.3974 6.4541C56.6821 19.6837 49.7628 17.5313 44.0097 6.51855C48.8724 24.5411 47.059 25.9761 30.9082 40.677C50.632 30.2279 59.0935 30.6463 69.2783 42.7825C59.0519 27.2224 60.2097 20.707 73.3974 6.4541ZM78.7901 6.49102L82.2143 40.1643L52.9541 57.184L81.5918 63.3636C78.7851 65.8105 75.6697 68.9382 72.4277 72.1805L72.4183 72.1893L5.43835 138.41V144.104H14.8591L80.0809 79.834C83.0868 76.8273 85.6186 74.11 87.6337 71.7041L93.1819 97.4121L110.202 68.1519L143.875 71.5761L121.307 46.3532L134.976 15.3894L104.012 29.0584L78.7898 6.49102H78.7901ZM7.87351 16.3881C17.7656 24.4916 18.1889 28.9175 16.8823 42.1049C22.4414 26.3637 25.0749 22.389 35.7788 18.0814C24.3082 20.8283 19.3974 21.3867 7.87351 16.3887V16.3881ZM23.9135 46.3898C31.2246 54.3035 31.8149 59.1879 31.018 67.5018C35.3467 57.409 37.4844 54.1248 47.3144 48.6604C37.1894 51.9366 33.9844 51.6545 23.9135 46.3898ZM119.302 74.2219C122.018 89.3666 117.952 95.816 109.68 105.478C122.365 94.6254 126.629 92.504 138.052 94.1253C126.744 90.7688 124.158 88.0831 119.302 74.2222L119.302 74.2219ZM102.996 95.5535C97.5164 115.707 89.7237 120.146 71.4656 116.098C87.3228 121.987 87.9715 122.271 87.1488 141.074C94.4018 124.837 100.769 125.776 114.998 130.17C102.76 120.843 101.607 115.823 102.996 95.5538V95.5535ZM135.031 111.951C130.542 117.223 128.312 117.075 122.195 114.688C128.883 120.092 127.35 124.656 125.372 132.092C130.074 126.49 132.262 124.698 140.112 128.375C133.415 122.122 132.164 119.628 135.031 111.95V111.951Z" fill="white"/>
</svg>
